<svg xmlns="http://www.w3.org/2000/svg" width="40" height="48" viewBox="0 0 40 48">
  <g id="Group_24" data-name="Group 24" transform="translate(-105 -986)">
    <circle id="Ellipse_16" data-name="Ellipse 16" cx="20" cy="20" r="20" transform="translate(105 986)" fill="#5b66a1"/>
    <path id="book_2_24dp_5F6368_FILL0_wght400_GRAD0_opsz24" d="M164.749-852.86a4.576,4.576,0,0,1-3.359-1.391A4.576,4.576,0,0,1,160-857.61v-17.641a4.576,4.576,0,0,1,1.391-3.359A4.576,4.576,0,0,1,164.749-880h16.962v20.355a1.963,1.963,0,0,0-1.442.594,1.963,1.963,0,0,0-.594,1.442,1.963,1.963,0,0,0,.594,1.442,1.963,1.963,0,0,0,1.442.594v2.714Zm-2.035-9.058a3.9,3.9,0,0,1,.984-.339,5.349,5.349,0,0,1,1.052-.1h.678v-14.927h-.678a1.963,1.963,0,0,0-1.442.594,1.963,1.963,0,0,0-.594,1.442Zm5.428-.441H179v-14.927H168.142Zm-5.428.441v0Zm2.035,6.344H177.4a6.066,6.066,0,0,1-.322-.967,4.551,4.551,0,0,1-.119-1.069,5.349,5.349,0,0,1,.1-1.052,3.9,3.9,0,0,1,.339-.984H164.749a1.948,1.948,0,0,0-1.459.594,1.993,1.993,0,0,0-.577,1.442,1.977,1.977,0,0,0,.577,1.459A1.977,1.977,0,0,0,164.749-855.574Z" transform="translate(-45.856 1872.43)" fill="#fff"/>
    <path id="Polygon_14" data-name="Polygon 14" d="M6.5,0,13,11H0Z" transform="translate(132 1034) rotate(180)" fill="#5b66a1"/>
  </g>
</svg>
